<?xml version="1.0" standalone="no"?>
<!DOCTYPE svg PUBLIC "-//W3C//DTD SVG 20010904//EN"
 "http://www.w3.org/TR/2001/REC-SVG-20010904/DTD/svg10.dtd">
<svg version="1.0" xmlns="http://www.w3.org/2000/svg"
 width="512.000000pt" height="512.000000pt" viewBox="0 0 512.000000 512.000000"
 preserveAspectRatio="xMidYMid meet">
<metadata>
Created by potrace 1.16, written by Peter Selinger 2001-2019
</metadata>
<g transform="translate(0.000000,512.000000) scale(0.100000,-0.100000)"
fill="#000000" stroke="none">
<path d="M4157 5109 c-37 -21 -47 -63 -47 -191 0 -104 3 -128 20 -155 35 -58
121 -64 165 -11 24 28 25 35 25 170 l0 140 -29 29 c-24 23 -38 29 -73 29 -24
0 -51 -5 -61 -11z"/>
<path d="M3359 4641 c-36 -37 -40 -94 -8 -134 22 -28 197 -132 241 -142 35 -9
92 19 107 51 18 41 13 90 -11 118 -13 14 -67 50 -120 81 -118 67 -162 72 -209
26z"/>
<path d="M4856 4607 c-61 -35 -114 -73 -122 -87 -23 -42 -17 -86 15 -122 46
-52 91 -46 216 26 118 69 134 86 135 144 0 35 -6 49 -29 73 -47 47 -86 41
-215 -34z"/>
<path d="M4089 4502 c-109 -37 -190 -110 -243 -222 -27 -57 -31 -75 -31 -155
0 -141 48 -247 147 -325 76 -61 146 -84 259 -84 90 -1 99 1 171 37 88 43 152
107 195 195 26 52 28 67 28 167 0 104 -2 114 -32 176 -40 81 -121 160 -200
197 -77 35 -210 41 -294 14z m204 -208 c133 -68 157 -235 47 -327 -67 -57
-166 -60 -237 -8 -83 60 -104 181 -48 263 54 77 162 110 238 72z"/>
<path d="M3466 3806 c-60 -35 -115 -74 -122 -87 -40 -73 11 -159 93 -159 32 0
228 109 256 141 19 24 23 89 7 120 -14 25 -62 49 -97 49 -16 0 -74 -27 -137
-64z"/>
<path d="M4754 3836 c-26 -26 -34 -42 -34 -70 0 -49 34 -83 153 -152 88 -51
102 -56 140 -51 56 8 87 43 87 100 0 24 -7 52 -15 64 -8 11 -64 48 -123 82
-130 73 -158 77 -208 27z"/>
<path d="M4175 3511 c-11 -5 -29 -19 -40 -31 -17 -19 -20 -39 -23 -152 -4
-145 4 -180 49 -203 47 -25 96 -19 130 14 l29 29 0 136 c0 76 -5 146 -11 159
-21 45 -84 68 -134 48z"/>
<path d="M975 3406 c-194 -47 -335 -223 -335 -417 0 -47 0 -47 -39 -54 -65
-11 -154 -59 -219 -120 -79 -73 -129 -170 -145 -279 -11 -74 -9 -90 18 -236 4
-20 -3 -31 -38 -58 -92 -73 -170 -195 -202 -317 -25 -96 -20 -248 10 -344 115
-364 522 -532 868 -358 l87 45 0 -534 0 -534 -464 0 -463 0 -27 -26 c-37 -38
-37 -110 0 -148 l27 -26 2507 0 2507 0 27 26 c37 38 37 110 0 148 -24 23 -34
26 -100 26 l-74 0 0 208 0 208 33 12 c46 17 115 88 143 147 18 38 24 67 24
121 0 92 -22 152 -76 213 -59 66 -124 93 -236 99 l-88 4 0 102 0 101 46 24
c25 14 63 44 84 68 60 68 70 111 70 297 0 172 -7 214 -43 267 l-23 34 33 63
33 63 0 178 0 178 -31 61 c-35 70 -71 104 -149 141 l-55 26 -1015 0 c-842 0
-1022 -2 -1055 -14 -91 -32 -164 -105 -196 -196 -10 -28 -14 -87 -13 -200 1
-168 9 -212 54 -275 17 -23 18 -30 6 -39 -8 -6 -24 -35 -37 -64 -21 -48 -23
-66 -23 -222 -1 -153 2 -175 21 -217 28 -61 92 -130 143 -153 l40 -18 0 -102
0 -102 -92 -5 c-107 -6 -169 -31 -230 -95 -114 -118 -109 -315 11 -431 22 -22
54 -45 71 -52 l30 -12 0 -209 0 -209 -605 0 -605 0 0 531 c0 292 3 529 8 527
122 -61 171 -81 237 -94 336 -66 663 161 721 501 39 223 -53 459 -229 593
l-29 21 16 64 c43 169 -1 332 -122 459 -62 65 -164 123 -237 134 -44 6 -45 7
-45 45 0 278 -267 490 -535 425z m212 -232 c53 -31 100 -99 109 -161 5 -32 1
-61 -15 -107 -25 -75 -26 -90 -4 -127 24 -40 62 -53 134 -45 83 10 152 -12
213 -65 107 -94 126 -233 49 -353 -28 -43 -33 -98 -14 -134 6 -11 38 -35 70
-52 118 -63 199 -174 221 -301 22 -126 -31 -273 -129 -360 -147 -131 -352
-141 -509 -25 -32 24 -73 65 -90 91 -31 47 -32 51 -32 159 l0 111 163 65 c89
35 172 75 185 87 34 34 31 105 -7 144 -41 41 -79 38 -213 -16 -62 -25 -115
-45 -119 -45 -4 0 -9 75 -11 166 l-3 166 -33 29 c-42 38 -98 40 -139 5 l-28
-24 -5 -175 -5 -175 -120 49 c-68 27 -137 48 -158 49 -103 1 -135 -146 -43
-194 17 -9 96 -43 176 -74 l145 -58 3 -105 3 -105 -38 -54 c-78 -112 -193
-172 -328 -174 -179 -1 -320 99 -386 273 -17 45 -20 73 -17 146 3 78 8 100 35
155 38 77 106 146 188 192 50 28 62 41 74 75 15 41 14 43 -23 113 -20 39 -40
93 -43 119 -12 105 50 216 151 268 43 23 64 27 136 28 88 0 122 11 140 45 14
27 12 81 -5 130 -20 58 -19 106 6 160 31 70 73 107 149 131 42 14 119 1 167
-27z m3454 -574 c60 -17 69 -41 69 -190 0 -75 -5 -140 -11 -152 -26 -49 -11
-48 -1041 -48 -936 0 -964 1 -995 20 -41 24 -53 68 -52 185 0 115 13 155 59
177 33 17 101 18 985 18 611 0 963 -4 986 -10z m38 -626 l31 -26 0 -138 c0
-132 -1 -140 -24 -167 l-24 -28 -980 -3 c-616 -1 -989 1 -1005 7 -44 17 -61
55 -65 152 -6 119 3 171 35 203 l26 26 988 0 987 0 31 -26z m-1669 -669 l0
-95 -95 0 -95 0 0 95 0 95 95 0 95 0 0 -95z m1100 0 l0 -95 -445 0 -445 0 0
95 0 95 445 0 445 0 0 -95z m400 0 l0 -95 -95 0 -95 0 0 95 0 95 95 0 95 0 0
-95z m376 -338 c36 -42 33 -98 -7 -131 l-31 -26 -1184 0 -1184 0 -30 28 c-50
44 -37 128 23 152 13 5 533 8 1205 7 l1184 -2 24 -28z m-2076 -567 l0 -200
-100 0 -100 0 0 200 0 200 100 0 100 0 0 -200z m1500 0 l0 -200 -645 0 -645 0
0 200 0 200 645 0 645 0 0 -200z m400 0 l0 -200 -95 0 -95 0 0 200 0 200 95 0
95 0 0 -200z"/>
</g>
</svg>
