<?xml version="1.0" standalone="no"?>
<!DOCTYPE svg PUBLIC "-//W3C//DTD SVG 20010904//EN"
 "http://www.w3.org/TR/2001/REC-SVG-20010904/DTD/svg10.dtd">
<svg version="1.0" xmlns="http://www.w3.org/2000/svg"
 width="512.000000pt" height="512.000000pt" viewBox="0 0 512.000000 512.000000"
 preserveAspectRatio="xMidYMid meet">
<metadata>
Created by potrace 1.16, written by Peter Selinger 2001-2019
</metadata>
<g transform="translate(0.000000,512.000000) scale(0.100000,-0.100000)"
fill="#000000" stroke="none">
<path d="M3880 5080 c-18 -18 -20 -33 -20 -168 0 -142 1 -149 23 -170 29 -27
77 -28 108 -3 23 18 24 26 27 163 3 134 2 145 -18 171 -27 34 -89 38 -120 7z"/>
<path d="M3213 4878 c-27 -13 -46 -57 -38 -90 4 -14 51 -69 104 -122 83 -81
103 -96 130 -96 43 0 81 38 81 82 0 27 -15 47 -103 135 -107 107 -124 115
-174 91z"/>
<path d="M4585 4878 c-41 -22 -185 -173 -196 -205 -11 -36 7 -85 36 -97 47
-18 68 -6 171 96 91 89 104 106 104 135 0 62 -62 100 -115 71z"/>
<path d="M3835 4479 c-134 -20 -261 -77 -362 -161 -111 -92 -209 -248 -236
-374 l-11 -53 -335 -3 c-325 -3 -337 -4 -378 -25 l-43 -23 -37 23 -38 22 -983
3 -984 2 -37 -21 c-46 -25 -69 -62 -77 -122 l-6 -45 -87 -4 c-100 -5 -136 -21
-185 -81 l-31 -39 -3 -1054 c-2 -1045 -2 -1054 18 -1074 41 -41 130 -14 130
40 0 18 7 20 80 20 l79 0 3 -437 3 -438 23 -33 c47 -66 -16 -62 1040 -62 1138
0 1012 19 1012 -152 0 -101 -1 -110 -17 -103 -84 35 -85 35 -1149 35 l-1043 0
-15 22 c-14 19 -16 78 -16 439 l0 418 -26 20 c-15 12 -37 21 -49 21 -12 0 -34
-9 -49 -21 l-26 -20 0 -444 c0 -289 4 -454 11 -472 15 -40 57 -82 104 -104 38
-18 89 -19 1087 -19 702 0 1056 -3 1075 -10 15 -6 54 -38 85 -70 56 -58 59
-60 110 -60 50 0 54 2 102 54 28 29 62 60 76 67 21 12 218 15 1096 19 l1070 5
41 27 c22 15 51 44 64 65 l24 38 3 1620 2 1619 -26 53 c-35 73 -89 104 -189
111 l-72 4 -6 102 c-5 113 -40 235 -88 310 -34 55 -77 69 -118 39 -46 -35 -48
-60 -8 -149 45 -101 61 -184 54 -282 -10 -142 -53 -229 -197 -402 -39 -47 -86
-115 -103 -152 l-32 -67 -226 0 -225 -1 -23 47 c-34 71 -83 141 -155 223 -113
128 -160 243 -160 390 0 144 51 273 150 380 100 108 201 161 340 181 93 13
192 -1 278 -38 121 -51 176 -37 176 45 0 46 -15 61 -90 96 -114 52 -273 74
-395 55z m-1467 -769 l22 -21 0 -1501 0 -1500 -22 6 c-13 3 -445 6 -960 6
l-938 0 0 405 0 405 554 0 c341 0 565 4 581 10 31 12 353 239 378 267 45 51
41 137 -10 185 -16 14 -102 78 -193 142 l-165 116 -572 0 -573 0 0 750 0 750
938 0 c930 0 938 0 960 -20z m853 -40 c7 -62 34 -161 55 -202 l15 -28 -211 0
c-211 0 -211 0 -235 -25 -38 -37 -35 -95 6 -129 l31 -26 268 0 269 0 44 -57
c24 -32 54 -77 66 -100 l21 -43 -330 0 c-338 0 -359 -2 -387 -39 -19 -25 -16
-86 6 -112 l19 -24 355 -3 354 -3 7 -85 c4 -47 10 -92 13 -99 4 -12 -52 -15
-355 -17 l-360 -3 -26 -24 c-35 -33 -36 -92 -1 -126 l24 -25 419 0 419 0 63
-32 c59 -31 70 -33 164 -33 89 0 108 3 158 27 73 34 137 98 174 174 28 56 29
66 32 219 l4 160 39 76 c22 42 60 99 84 128 l45 53 0 -1286 0 -1286 -929 0
c-511 0 -943 -3 -960 -6 l-31 -6 0 1496 0 1497 25 25 24 24 308 -2 308 -3 6
-55z m-2911 -785 l0 -655 -80 0 -80 0 2 641 c3 734 -6 669 100 669 l58 0 0
-655z m4464 639 c14 -14 16 -172 16 -1594 0 -1422 -2 -1580 -16 -1594 -14 -14
-124 -16 -1058 -16 -1064 0 -1065 0 -1148 -35 -17 -7 -18 2 -18 102 0 99 2
112 21 129 20 18 55 19 999 24 l978 5 27 25 c59 55 55 -46 55 1525 l0 1445 64
0 c45 0 69 -5 80 -16z m-636 -686 c-4 -122 -22 -167 -86 -212 -57 -40 -141
-47 -199 -17 -87 44 -123 121 -123 261 l0 70 206 0 206 0 -4 -102z m-3698
-963 l0 -205 -139 0 c-117 0 -140 2 -145 16 -12 31 -7 369 6 382 8 8 55 12
145 12 l133 0 0 -205z m1060 0 l0 -205 -450 0 -450 0 0 205 0 205 450 0 450 0
0 -205z m252 59 c91 -64 92 -54 -19 -133 l-73 -51 0 120 c0 66 3 120 6 120 3
0 42 -25 86 -56z"/>
<path d="M785 3428 c-54 -31 -61 -93 -16 -139 l29 -29 626 0 c373 0 635 4 650
10 58 22 69 110 19 150 -25 20 -39 20 -657 20 -456 -1 -637 -4 -651 -12z"/>
<path d="M769 3031 c-46 -46 -38 -110 18 -139 16 -9 192 -12 652 -12 l630 0
28 24 c36 31 39 95 5 128 l-23 23 -640 3 -640 2 -30 -29z"/>
<path d="M794 2670 c-56 -22 -72 -103 -29 -145 l24 -25 638 0 c569 0 641 2
661 16 34 23 45 60 31 101 -21 64 -9 63 -691 62 -337 0 -623 -4 -634 -9z"/>
<path d="M765 1215 c-34 -33 -34 -87 0 -120 l24 -25 643 0 c694 1 667 -2 688
55 12 33 5 62 -23 93 l-20 22 -644 0 -644 0 -24 -25z"/>
<path d="M2841 2264 c-29 -37 -27 -89 4 -119 l24 -25 644 0 644 0 22 24 c31
33 31 89 0 122 l-22 24 -648 0 -648 0 -20 -26z"/>
<path d="M2932 1903 c-42 -20 -69 -55 -82 -104 -7 -25 -10 -184 -8 -442 3
-381 4 -404 23 -436 11 -19 33 -43 48 -55 28 -21 37 -21 588 -24 l560 -2 40
22 c25 14 46 37 59 64 20 40 21 57 18 467 -3 412 -4 426 -24 453 -11 15 -33
37 -48 48 -27 21 -39 21 -584 23 -499 3 -560 1 -590 -14z m1088 -523 l0 -380
-510 0 -510 0 0 380 0 380 510 0 510 0 0 -380z"/>
<path d="M2794 4276 c-49 -22 -59 -74 -23 -120 l20 -26 150 0 c136 0 151 2
169 20 28 28 27 90 -1 116 -18 16 -39 19 -153 22 -95 1 -140 -2 -162 -12z"/>
<path d="M4789 4279 c-27 -10 -49 -46 -49 -78 0 -10 9 -30 21 -45 l20 -26 150
0 c136 0 151 2 169 20 28 28 27 90 -1 116 -18 16 -39 19 -153 21 -72 1 -143
-2 -157 -8z"/>
</g>
</svg>
