<?xml version="1.0" standalone="no"?>
<!DOCTYPE svg PUBLIC "-//W3C//DTD SVG 20010904//EN"
 "http://www.w3.org/TR/2001/REC-SVG-20010904/DTD/svg10.dtd">
<svg version="1.0" xmlns="http://www.w3.org/2000/svg"
 width="512.000000pt" height="512.000000pt" viewBox="0 0 512.000000 512.000000"
 preserveAspectRatio="xMidYMid meet">
<metadata>
Created by potrace 1.16, written by Peter Selinger 2001-2019
</metadata>
<g transform="translate(0.000000,512.000000) scale(0.100000,-0.100000)"
fill="#000000" stroke="none">
<path d="M2442 5017 c-352 -334 -2410 -2295 -2419 -2307 -7 -8 -13 -31 -13
-50 0 -42 9 -52 208 -218 120 -101 137 -112 172 -112 35 0 48 8 109 66 l70 66
3 -257 3 -257 28 -24 c34 -29 71 -25 104 13 23 24 23 26 23 356 l0 332 912
870 c501 479 914 870 918 870 4 0 417 -391 918 -870 l912 -870 0 -917 0 -918
-838 0 -839 0 -21 -23 c-21 -22 -22 -32 -24 -302 l-3 -280 -105 0 -105 0 -3
1064 -2 1065 -22 23 -21 23 -656 0 c-707 -1 -680 1 -701 -54 -7 -18 -10 -375
-10 -1077 l0 -1049 -40 0 -40 0 0 280 0 281 -25 24 c-22 23 -32 25 -115 25
l-90 0 0 429 c0 412 -1 429 -20 453 -38 49 -110 41 -130 -15 -6 -19 -10 -180
-10 -443 l0 -413 -264 -3 c-243 -3 -266 -5 -285 -22 -21 -19 -21 -26 -21 -363
0 -330 1 -344 20 -363 20 -20 33 -20 2540 -20 2507 0 2520 0 2540 20 19 19 20
33 20 363 0 337 0 344 -21 363 -19 17 -42 19 -285 22 l-264 3 0 831 0 830 70
-66 c62 -58 75 -66 110 -66 35 0 52 11 172 112 199 167 208 176 208 218 0 34
-10 47 -117 152 -65 63 -185 179 -268 257 l-150 142 -5 379 c-5 354 -6 379
-24 399 -26 29 -86 29 -112 0 -18 -19 -19 -44 -24 -321 l-5 -301 -397 378
-398 378 0 189 0 188 400 0 400 0 0 -118 c0 -89 4 -123 15 -139 18 -26 75 -39
103 -24 37 19 44 59 40 230 -3 152 -4 162 -26 183 l-23 23 -509 0 -509 0 -23
-23 c-22 -21 -23 -33 -28 -184 l-5 -161 -346 329 c-547 522 -493 474 -539 474
-36 0 -48 -7 -118 -73z m-142 -3822 l0 -1005 -550 0 -550 0 0 1005 0 1005 550
0 550 0 0 -1005z m-1500 -780 l0 -225 -325 0 -325 0 0 225 0 225 325 0 325 0
0 -225z m4170 0 l0 -225 -1075 0 -1075 0 0 225 0 225 1075 0 1075 0 0 -225z"/>
<path d="M1892 1257 c-27 -29 -28 -77 -3 -108 18 -22 28 -24 126 -27 122 -4
147 0 175 30 26 28 26 68 -1 102 -20 26 -22 26 -148 26 -120 0 -129 -1 -149
-23z"/>
<path d="M2440 3662 c-73 -25 -107 -43 -159 -88 -183 -158 -192 -444 -19 -617
167 -167 429 -167 596 0 179 179 163 468 -35 629 -102 83 -264 115 -383 76z"/>
<path d="M2692 2337 l-22 -23 0 -661 0 -662 26 -20 c26 -21 33 -21 766 -21
l739 0 24 25 25 24 0 656 0 656 -25 24 -24 25 -744 0 -744 0 -21 -23z m1398
-247 l0 -110 -635 0 -635 0 0 110 0 110 635 0 635 0 0 -110z m5 -625 l0 -360
-637 -3 -638 -2 0 365 0 365 638 -2 637 -3 0 -360z"/>
</g>
</svg>
